<?xml version="1.0" encoding="utf-8"?>
<!-- Generator: Adobe Illustrator 27.5.0, SVG Export Plug-In . SVG Version: 6.00 Build 0)  -->
<svg version="1.1" id="Layer_1" xmlns="http://www.w3.org/2000/svg" xmlns:xlink="http://www.w3.org/1999/xlink" x="0px" y="0px"
	 viewBox="0 0 256.8 235" style="enable-background:new 0 0 256.8 235;" xml:space="preserve">
<style type="text/css">
	.st0{fill:#FFFFFF;}
	.st1{stroke:#000000;stroke-width:0.8;stroke-linejoin:round;}
	.st2{stroke:#000000;stroke-width:0.6;stroke-linejoin:round;}
	
		.st3{clip-path:url(#SVGID_00000183958913555678375260000010329269504731625140_);fill:none;stroke:#3A76AE;stroke-width:1.5;stroke-linejoin:round;}
	
		.st4{clip-path:url(#SVGID_00000158749386566540464750000001681193373947954867_);fill:none;stroke:#3A76AE;stroke-width:1.5;stroke-linejoin:round;}
	
		.st5{clip-path:url(#SVGID_00000091008687857859161560000007654615965203210154_);fill:none;stroke:#3A76AE;stroke-width:1.5;stroke-linejoin:round;}
	
		.st6{clip-path:url(#SVGID_00000131328228235854234290000005498848810033670578_);fill:none;stroke:#3A76AE;stroke-width:1.5;stroke-linejoin:round;}
	
		.st7{clip-path:url(#SVGID_00000159445122420448045400000002238716916019109020_);fill:none;stroke:#3A76AE;stroke-width:1.5;stroke-linejoin:round;}
	
		.st8{clip-path:url(#SVGID_00000032622130241026247570000017513263257741324167_);fill:none;stroke:#3A76AE;stroke-width:1.5;stroke-linejoin:round;}
	
		.st9{clip-path:url(#SVGID_00000005967249269631210310000005687288597298860967_);fill:none;stroke:#3A76AE;stroke-width:1.5;stroke-linejoin:round;}
	
		.st10{clip-path:url(#SVGID_00000108988489405737289760000007403799206478341049_);fill:none;stroke:#5BAEFF;stroke-width:1.5;stroke-linejoin:round;stroke-dasharray:5.55,2.4;}
	
		.st11{clip-path:url(#SVGID_00000166636676200625875260000004850913274909583792_);fill:none;stroke:#5BAEFF;stroke-width:1.5;stroke-linejoin:round;stroke-dasharray:5.55,2.4;}
	
		.st12{clip-path:url(#SVGID_00000152973999271547897640000002737114911593405337_);fill:none;stroke:#5BAEFF;stroke-width:1.5;stroke-linejoin:round;stroke-dasharray:5.55,2.4;}
	
		.st13{clip-path:url(#SVGID_00000057107383122911520740000016737819516131908794_);fill:none;stroke:#9ED17B;stroke-width:1.5;stroke-linejoin:round;stroke-dasharray:5.55,2.4;}
	
		.st14{clip-path:url(#SVGID_00000183944794654899084970000006195028739063486116_);fill:none;stroke:#D65D48;stroke-width:1.5;stroke-linejoin:round;}
	
		.st15{clip-path:url(#SVGID_00000178895568186636764260000004141381509537309355_);fill:none;stroke:#D65D48;stroke-width:1.5;stroke-linejoin:round;}
	
		.st16{clip-path:url(#SVGID_00000020384211063695170970000007429465445005939346_);fill:none;stroke:#D65D48;stroke-width:1.5;stroke-linejoin:round;}
	
		.st17{clip-path:url(#SVGID_00000060717978412494607060000004629017148962355133_);fill:none;stroke:#D65D48;stroke-width:1.5;stroke-linejoin:round;}
	
		.st18{clip-path:url(#SVGID_00000164483529140504868450000008210247190509094319_);fill:none;stroke:#D65D48;stroke-width:1.5;stroke-linejoin:round;stroke-dasharray:5.55,2.4;}
	
		.st19{clip-path:url(#SVGID_00000152979280766588617340000012614935956951923855_);fill:none;stroke:#D65D48;stroke-width:1.5;stroke-linejoin:round;stroke-dasharray:5.55,2.4;}
	
		.st20{clip-path:url(#SVGID_00000162321499392640879070000015296780902266139552_);fill:none;stroke:#FFD06F;stroke-width:1.5;stroke-linejoin:round;stroke-dasharray:5.55,2.4;}
	.st21{clip-path:url(#SVGID_00000049199424279350914030000015523687458820034734_);}
	.st22{fill:#90BCD5;stroke:#3A76AE;stroke-linejoin:round;}
	.st23{clip-path:url(#SVGID_00000118369042174548533820000009845642361795010957_);}
	.st24{fill:#E3B0A3;stroke:#D65D48;stroke-linejoin:round;}
	.st25{fill:none;stroke:#000000;stroke-width:0.8;stroke-linecap:square;}
</style>
<g id="figure_1">
	<g id="patch_1">
		<path class="st0" d="M256.8,0"/>
		<path class="st0" d="M0,235"/>
	</g>
	<g id="axes_1">
		<g id="patch_2">
			<path class="st0" d="M54.3,194h195.3V11H54.3V194z"/>
		</g>
		<g id="matplotlib.axis_1">
			<g id="xtick_1">
				<g id="line2d_1">
					<g>
						<g>
							<path id="mf87f0168fd_00000100357566435005859630000006321489200320900538_" class="st1" d="M210,194"/>
						</g>
					</g>
				</g>
			</g>
			<g id="xtick_2">
				<g id="line2d_2">
					<g>
						<g>
							<path id="m956be6463f_00000173161850720498249260000014427706050364847009_" class="st2" d="M63.2,194"/>
						</g>
					</g>
				</g>
			</g>
			<g id="xtick_3">
				<g id="line2d_3">
					<g>
						<g>
							<path id="m956be6463f_00000082345941068743405150000007019523019076802712_" class="st2" d="M100.2,194"/>
						</g>
					</g>
				</g>
			</g>
			<g id="xtick_4">
				<g id="line2d_4">
					<g>
						<g>
							<path id="m956be6463f_00000021808903290015122560000005006404637852161968_" class="st2" d="M126.4,194"/>
						</g>
					</g>
				</g>
			</g>
			<g id="xtick_5">
				<g id="line2d_5">
					<g>
						<g>
							<path id="m956be6463f_00000040575190898983805150000005624606369617734033_" class="st2" d="M146.8,194"/>
						</g>
					</g>
				</g>
			</g>
			<g id="xtick_6">
				<g id="line2d_6">
					<g>
						<g>
							<path id="m956be6463f_00000121995483200880205030000018419621745402190259_" class="st2" d="M163.4,194"/>
						</g>
					</g>
				</g>
			</g>
			<g id="xtick_7">
				<g id="line2d_7">
					<g>
						<g>
							<path id="m956be6463f_00000182515383819826331880000014030131745446675104_" class="st2" d="M177.5,194"/>
						</g>
					</g>
				</g>
			</g>
			<g id="xtick_8">
				<g id="line2d_8">
					<g>
						<g>
							<path id="m956be6463f_00000049934236862793812300000004616453241161821621_" class="st2" d="M189.6,194"/>
						</g>
					</g>
				</g>
			</g>
			<g id="xtick_9">
				<g id="line2d_9">
					<g>
						<g>
							<path id="m956be6463f_00000132774877554211849860000010242642662580874164_" class="st2" d="M200.4,194"/>
						</g>
					</g>
				</g>
			</g>
		</g>
		<g id="matplotlib.axis_2">
			<g id="ytick_1">
				<g id="line2d_10">
					<g>
						<g>
							<path id="m16b0d85529" class="st1" d="M54.3,194h-3.5"/>
						</g>
					</g>
				</g>
			</g>
			<g id="ytick_2">
				<g id="line2d_11">
					<g>
						<g>
							<path id="m16b0d85529_00000179606522051478148480000011896106268771043981_" class="st1" d="M54.3,157.4h-3.5"/>
						</g>
					</g>
				</g>
			</g>
			<g id="ytick_3">
				<g id="line2d_12">
					<g>
						<g>
							<path id="m16b0d85529_00000021817799782436334820000002204771626904023957_" class="st1" d="M54.3,120.8h-3.5"/>
						</g>
					</g>
				</g>
			</g>
			<g id="ytick_4">
				<g id="line2d_13">
					<g>
						<g>
							<path id="m16b0d85529_00000170991749482583673050000003525587486403877020_" class="st1" d="M54.3,84.2h-3.5"/>
						</g>
					</g>
				</g>
			</g>
			<g id="ytick_5">
				<g id="line2d_14">
					<g>
						<g>
							<path id="m16b0d85529_00000092424086579510807590000003949943676669756069_" class="st1" d="M54.3,47.6h-3.5"/>
						</g>
					</g>
				</g>
			</g>
			<g id="ytick_6">
				<g id="line2d_15">
					<g>
						<g>
							<path id="m16b0d85529_00000180327382482524009870000013620813597575410330_" class="st1" d="M54.3,11h-3.5"/>
						</g>
					</g>
				</g>
			</g>
			<g id="ytick_7">
				<g id="line2d_16">
					<g>
						<g>
							<path id="me13d8170ab" class="st2" d="M54.3,182.9h-2"/>
						</g>
					</g>
				</g>
			</g>
			<g id="ytick_8">
				<g id="line2d_17">
					<g>
						<g>
							<path id="me13d8170ab_00000130611930124567132060000013070377178821032841_" class="st2" d="M54.3,176.5h-2"/>
						</g>
					</g>
				</g>
			</g>
			<g id="ytick_9">
				<g id="line2d_18">
					<g>
						<g>
							<path id="me13d8170ab_00000173846388314901663870000017555608430020837544_" class="st2" d="M54.3,171.9h-2"/>
						</g>
					</g>
				</g>
			</g>
			<g id="ytick_10">
				<g id="line2d_19">
					<g>
						<g>
							<path id="me13d8170ab_00000158716475429488276930000007538209766372653746_" class="st2" d="M54.3,168.4h-2"/>
						</g>
					</g>
				</g>
			</g>
			<g id="ytick_11">
				<g id="line2d_20">
					<g>
						<g>
							<path id="me13d8170ab_00000181781794576711589900000015444140488903376528_" class="st2" d="M54.3,165.5h-2"/>
						</g>
					</g>
				</g>
			</g>
			<g id="ytick_12">
				<g id="line2d_21">
					<g>
						<g>
							<path id="me13d8170ab_00000143602197684584658570000012442428386728131982_" class="st2" d="M54.3,163h-2"/>
						</g>
					</g>
				</g>
			</g>
			<g id="ytick_13">
				<g id="line2d_22">
					<g>
						<g>
							<path id="me13d8170ab_00000114072982103661595050000015663563869695511467_" class="st2" d="M54.3,160.9h-2"/>
						</g>
					</g>
				</g>
			</g>
			<g id="ytick_14">
				<g id="line2d_23">
					<g>
						<g>
							<path id="me13d8170ab_00000108296933332952164530000000388755493412955033_" class="st2" d="M54.3,159h-2"/>
						</g>
					</g>
				</g>
			</g>
			<g id="ytick_15">
				<g id="line2d_24">
					<g>
						<g>
							<path id="me13d8170ab_00000178904157467257931340000003355947704368004764_" class="st2" d="M54.3,146.3h-2"/>
						</g>
					</g>
				</g>
			</g>
			<g id="ytick_16">
				<g id="line2d_25">
					<g>
						<g>
							<path id="me13d8170ab_00000160894873507132476670000010735499237971049856_" class="st2" d="M54.3,139.9h-2"/>
						</g>
					</g>
				</g>
			</g>
			<g id="ytick_17">
				<g id="line2d_26">
					<g>
						<g>
							<path id="me13d8170ab_00000145761066521119271000000015144788742158628263_" class="st2" d="M54.3,135.3h-2"/>
						</g>
					</g>
				</g>
			</g>
			<g id="ytick_18">
				<g id="line2d_27">
					<g>
						<g>
							<path id="me13d8170ab_00000093856021875196482810000001548351226605975207_" class="st2" d="M54.3,131.8h-2"/>
						</g>
					</g>
				</g>
			</g>
			<g id="ytick_19">
				<g id="line2d_28">
					<g>
						<g>
							<path id="me13d8170ab_00000018916396332747353700000009162769664995306426_" class="st2" d="M54.3,128.9h-2"/>
						</g>
					</g>
				</g>
			</g>
			<g id="ytick_20">
				<g id="line2d_29">
					<g>
						<g>
							<path id="me13d8170ab_00000016073359873751698060000005340952311211984780_" class="st2" d="M54.3,126.4h-2"/>
						</g>
					</g>
				</g>
			</g>
			<g id="ytick_21">
				<g id="line2d_30">
					<g>
						<g>
							<path id="me13d8170ab_00000094597734832470097300000015076022515101097609_" class="st2" d="M54.3,124.3h-2"/>
						</g>
					</g>
				</g>
			</g>
			<g id="ytick_22">
				<g id="line2d_31">
					<g>
						<g>
							<path id="me13d8170ab_00000004516798610669343160000003596686794606749063_" class="st2" d="M54.3,122.4h-2"/>
						</g>
					</g>
				</g>
			</g>
			<g id="ytick_23">
				<g id="line2d_32">
					<g>
						<g>
							<path id="me13d8170ab_00000039822404636176424130000006852488312931633325_" class="st2" d="M54.3,109.8h-2"/>
						</g>
					</g>
				</g>
			</g>
			<g id="ytick_24">
				<g id="line2d_33">
					<g>
						<g>
							<path id="me13d8170ab_00000083063358549705214950000004243236319653129600_" class="st2" d="M54.3,103.3h-2"/>
						</g>
					</g>
				</g>
			</g>
			<g id="ytick_25">
				<g id="line2d_34">
					<g>
						<g>
							<path id="me13d8170ab_00000147209172256521856130000015899541452581274265_" class="st2" d="M54.3,98.7h-2"/>
						</g>
					</g>
				</g>
			</g>
			<g id="ytick_26">
				<g id="line2d_35">
					<g>
						<g>
							<path id="me13d8170ab_00000067945089620529197770000007092707600907610509_" class="st2" d="M54.3,95.2h-2"/>
						</g>
					</g>
				</g>
			</g>
			<g id="ytick_27">
				<g id="line2d_36">
					<g>
						<g>
							<path id="me13d8170ab_00000114779313830491574840000009857241940624446598_" class="st2" d="M54.3,92.3h-2"/>
						</g>
					</g>
				</g>
			</g>
			<g id="ytick_28">
				<g id="line2d_37">
					<g>
						<g>
							<path id="me13d8170ab_00000090269921221773057220000007291582922255343768_" class="st2" d="M54.3,89.8h-2"/>
						</g>
					</g>
				</g>
			</g>
			<g id="ytick_29">
				<g id="line2d_38">
					<g>
						<g>
							<path id="me13d8170ab_00000171708253742906624660000015606551844617568676_" class="st2" d="M54.3,87.7h-2"/>
						</g>
					</g>
				</g>
			</g>
			<g id="ytick_30">
				<g id="line2d_39">
					<g>
						<g>
							<path id="me13d8170ab_00000057844449528992835500000008165851713126440335_" class="st2" d="M54.3,85.9h-2"/>
						</g>
					</g>
				</g>
			</g>
			<g id="ytick_31">
				<g id="line2d_40">
					<g>
						<g>
							<path id="me13d8170ab_00000113354738845295023000000006266508325695752871_" class="st2" d="M54.3,73.2h-2"/>
						</g>
					</g>
				</g>
			</g>
			<g id="ytick_32">
				<g id="line2d_41">
					<g>
						<g>
							<path id="me13d8170ab_00000171720981005262614830000007126293418089439647_" class="st2" d="M54.3,66.7h-2"/>
						</g>
					</g>
				</g>
			</g>
			<g id="ytick_33">
				<g id="line2d_42">
					<g>
						<g>
							<path id="me13d8170ab_00000127001701502176284420000016024353930347339392_" class="st2" d="M54.3,62.2h-2"/>
						</g>
					</g>
				</g>
			</g>
			<g id="ytick_34">
				<g id="line2d_43">
					<g>
						<g>
							<path id="me13d8170ab_00000163048967407506311470000004943151356812234148_" class="st2" d="M54.3,58.6h-2"/>
						</g>
					</g>
				</g>
			</g>
			<g id="ytick_35">
				<g id="line2d_44">
					<g>
						<g>
							<path id="me13d8170ab_00000122715900070739695210000008606906463198016443_" class="st2" d="M54.3,55.7h-2"/>
						</g>
					</g>
				</g>
			</g>
			<g id="ytick_36">
				<g id="line2d_45">
					<g>
						<g>
							<path id="me13d8170ab_00000144339643671080824240000017080040295129656251_" class="st2" d="M54.3,53.3h-2"/>
						</g>
					</g>
				</g>
			</g>
			<g id="ytick_37">
				<g id="line2d_46">
					<g>
						<g>
							<path id="me13d8170ab_00000106855719067415830410000015196440653158701186_" class="st2" d="M54.3,51.1h-2"/>
						</g>
					</g>
				</g>
			</g>
			<g id="ytick_38">
				<g id="line2d_47">
					<g>
						<g>
							<path id="me13d8170ab_00000031926057177392086150000004872777024146782883_" class="st2" d="M54.3,49.3h-2"/>
						</g>
					</g>
				</g>
			</g>
			<g id="ytick_39">
				<g id="line2d_48">
					<g>
						<g>
							<path id="me13d8170ab_00000049938456603505280330000000069476813012772758_" class="st2" d="M54.3,36.6h-2"/>
						</g>
					</g>
				</g>
			</g>
			<g id="ytick_40">
				<g id="line2d_49">
					<g>
						<g>
							<path id="me13d8170ab_00000096029582448223278920000006975554686441150365_" class="st2" d="M54.3,30.1h-2"/>
						</g>
					</g>
				</g>
			</g>
			<g id="ytick_41">
				<g id="line2d_50">
					<g>
						<g>
							<path id="me13d8170ab_00000106851376419806803850000005371109980971169684_" class="st2" d="M54.3,25.6h-2"/>
						</g>
					</g>
				</g>
			</g>
			<g id="ytick_42">
				<g id="line2d_51">
					<g>
						<g>
							<path id="me13d8170ab_00000060015998421505757120000004444743637878046594_" class="st2" d="M54.3,22h-2"/>
						</g>
					</g>
				</g>
			</g>
			<g id="ytick_43">
				<g id="line2d_52">
					<g>
						<g>
							<path id="me13d8170ab_00000119106532976034857360000007614247856013301638_" class="st2" d="M54.3,19.1h-2"/>
						</g>
					</g>
				</g>
			</g>
			<g id="ytick_44">
				<g id="line2d_53">
					<g>
						<g>
							<path id="me13d8170ab_00000150099945018699417890000011292411923531192232_" class="st2" d="M54.3,16.7h-2"/>
						</g>
					</g>
				</g>
			</g>
			<g id="ytick_45">
				<g id="line2d_54">
					<g>
						<g>
							<path id="me13d8170ab_00000028299174511676694740000014913934318067610544_" class="st2" d="M54.3,14.5h-2"/>
						</g>
					</g>
				</g>
			</g>
			<g id="ytick_46">
				<g id="line2d_55">
					<g>
						<g>
							<path id="me13d8170ab_00000047770434139687742160000010899261582961665194_" class="st2" d="M54.3,12.7h-2"/>
						</g>
					</g>
				</g>
			</g>
		</g>
		<g id="LineCollection_1">
			<g>
				<defs>
					<rect id="SVGID_1_" x="54.3" y="11" width="195.3" height="183"/>
				</defs>
				<clipPath id="SVGID_00000026128979814679166060000012922110744864471998_">
					<use xlink:href="#SVGID_1_"  style="overflow:visible;"/>
				</clipPath>
				
					<path style="clip-path:url(#SVGID_00000026128979814679166060000012922110744864471998_);fill:none;stroke:#3A76AE;stroke-width:1.5;stroke-linejoin:round;" d="
					M63.2,43.3v-0.9"/>
			</g>
			<g>
				<defs>
					<rect id="SVGID_00000162354314985443758350000017286213860962827156_" x="54.3" y="11" width="195.3" height="183"/>
				</defs>
				<clipPath id="SVGID_00000072250472723716452520000017333707803783717782_">
					<use xlink:href="#SVGID_00000162354314985443758350000017286213860962827156_"  style="overflow:visible;"/>
				</clipPath>
				
					<path style="clip-path:url(#SVGID_00000072250472723716452520000017333707803783717782_);fill:none;stroke:#3A76AE;stroke-width:1.5;stroke-linejoin:round;" d="
					M126.4,88.9v-9.4"/>
			</g>
			<g>
				<defs>
					<rect id="SVGID_00000018196029294140959490000015739218871940498054_" x="54.3" y="11" width="195.3" height="183"/>
				</defs>
				<clipPath id="SVGID_00000163779828380572326260000006129656602853440702_">
					<use xlink:href="#SVGID_00000018196029294140959490000015739218871940498054_"  style="overflow:visible;"/>
				</clipPath>
				
					<path style="clip-path:url(#SVGID_00000163779828380572326260000006129656602853440702_);fill:none;stroke:#3A76AE;stroke-width:1.5;stroke-linejoin:round;" d="
					M163.4,83.9v-7.3"/>
			</g>
			<g>
				<defs>
					<rect id="SVGID_00000003089721236642164920000001431251740623002018_" x="54.3" y="11" width="195.3" height="183"/>
				</defs>
				<clipPath id="SVGID_00000134216209861053234600000001154567534764840127_">
					<use xlink:href="#SVGID_00000003089721236642164920000001431251740623002018_"  style="overflow:visible;"/>
				</clipPath>
				
					<path style="clip-path:url(#SVGID_00000134216209861053234600000001154567534764840127_);fill:none;stroke:#3A76AE;stroke-width:1.5;stroke-linejoin:round;" d="
					M189.6,99.7V83.8"/>
			</g>
			<g>
				<defs>
					<rect id="SVGID_00000124129040626194961230000013378984817408341425_" x="54.3" y="11" width="195.3" height="183"/>
				</defs>
				<clipPath id="SVGID_00000066483414430080409490000004976257605613017224_">
					<use xlink:href="#SVGID_00000124129040626194961230000013378984817408341425_"  style="overflow:visible;"/>
				</clipPath>
				
					<path style="clip-path:url(#SVGID_00000066483414430080409490000004976257605613017224_);fill:none;stroke:#3A76AE;stroke-width:1.5;stroke-linejoin:round;" d="
					M210,97.3v-9.1"/>
			</g>
			<g>
				<defs>
					<rect id="SVGID_00000002344907151802883850000013904020425946473629_" x="54.3" y="11" width="195.3" height="183"/>
				</defs>
				<clipPath id="SVGID_00000065787088616823326290000017179069826808999308_">
					<use xlink:href="#SVGID_00000002344907151802883850000013904020425946473629_"  style="overflow:visible;"/>
				</clipPath>
				
					<path style="clip-path:url(#SVGID_00000065787088616823326290000017179069826808999308_);fill:none;stroke:#3A76AE;stroke-width:1.5;stroke-linejoin:round;" d="
					M226.6,104.5V92.2"/>
			</g>
			<g>
				<defs>
					<rect id="SVGID_00000181061893164970193620000000388288857365192087_" x="54.3" y="11" width="195.3" height="183"/>
				</defs>
				<clipPath id="SVGID_00000099638153542417102060000004369026953750737323_">
					<use xlink:href="#SVGID_00000181061893164970193620000000388288857365192087_"  style="overflow:visible;"/>
				</clipPath>
				
					<path style="clip-path:url(#SVGID_00000099638153542417102060000004369026953750737323_);fill:none;stroke:#3A76AE;stroke-width:1.5;stroke-linejoin:round;" d="
					M240.7,102.9V91.2"/>
			</g>
		</g>
		<g id="line2d_56">
			<g>
				<defs>
					<rect id="SVGID_00000114059023112088274050000003901888906493615280_" x="54.3" y="11" width="195.3" height="183"/>
				</defs>
				<clipPath id="SVGID_00000021109130324544619290000003304067713501790650_">
					<use xlink:href="#SVGID_00000114059023112088274050000003901888906493615280_"  style="overflow:visible;"/>
				</clipPath>
				
					<path style="clip-path:url(#SVGID_00000021109130324544619290000003304067713501790650_);fill:none;stroke:#5BAEFF;stroke-width:1.5;stroke-linejoin:round;stroke-dasharray:5.55,2.4;" d="
					M210,236V97.3"/>
			</g>
		</g>
		<g id="line2d_57">
			<g>
				<defs>
					<rect id="SVGID_00000098910102030059975680000004789342144140175775_" x="54.3" y="11" width="195.3" height="183"/>
				</defs>
				<clipPath id="SVGID_00000071528098143108557310000005679524003529160863_">
					<use xlink:href="#SVGID_00000098910102030059975680000004789342144140175775_"  style="overflow:visible;"/>
				</clipPath>
				
					<path style="clip-path:url(#SVGID_00000071528098143108557310000005679524003529160863_);fill:none;stroke:#5BAEFF;stroke-width:1.5;stroke-linejoin:round;stroke-dasharray:5.55,2.4;" d="
					M226.6,236V104.5"/>
			</g>
		</g>
		<g id="line2d_58">
			<g>
				<defs>
					<rect id="SVGID_00000024681512838380371970000015856852484976178603_" x="54.3" y="11" width="195.3" height="183"/>
				</defs>
				<clipPath id="SVGID_00000155863514657130474400000012439752394752041658_">
					<use xlink:href="#SVGID_00000024681512838380371970000015856852484976178603_"  style="overflow:visible;"/>
				</clipPath>
				
					<path style="clip-path:url(#SVGID_00000155863514657130474400000012439752394752041658_);fill:none;stroke:#5BAEFF;stroke-width:1.5;stroke-linejoin:round;stroke-dasharray:5.55,2.4;" d="
					M240.7,236v-133"/>
			</g>
		</g>
		<g id="line2d_59">
			<g>
				<defs>
					<rect id="SVGID_00000101078411067671841700000001492933620531410078_" x="54.3" y="11" width="195.3" height="183"/>
				</defs>
				<clipPath id="SVGID_00000142148032739773480660000016453505330530603679_">
					<use xlink:href="#SVGID_00000101078411067671841700000001492933620531410078_"  style="overflow:visible;"/>
				</clipPath>
				
					<path style="clip-path:url(#SVGID_00000142148032739773480660000016453505330530603679_);fill:none;stroke:#9ED17B;stroke-width:1.5;stroke-linejoin:round;stroke-dasharray:5.55,2.4;" d="
					M63.2,42.8l63.2,38.7l37-1.1l26.2,8.9l20.4,13.7l16.6,3.4l14.1-3"/>
			</g>
		</g>
		<g id="LineCollection_2">
			<g>
				<defs>
					<rect id="SVGID_00000095324381063137202750000009219874446689566115_" x="54.3" y="11" width="195.3" height="183"/>
				</defs>
				<clipPath id="SVGID_00000085214837246299099390000012446275381816009917_">
					<use xlink:href="#SVGID_00000095324381063137202750000009219874446689566115_"  style="overflow:visible;"/>
				</clipPath>
				
					<path style="clip-path:url(#SVGID_00000085214837246299099390000012446275381816009917_);fill:none;stroke:#D65D48;stroke-width:1.5;stroke-linejoin:round;" d="
					M63.2,41.8v-0.4"/>
			</g>
			<g>
				<defs>
					<rect id="SVGID_00000029009061912935508930000003912892952843479737_" x="54.3" y="11" width="195.3" height="183"/>
				</defs>
				<clipPath id="SVGID_00000041975086910255190240000015550507951289617293_">
					<use xlink:href="#SVGID_00000029009061912935508930000003912892952843479737_"  style="overflow:visible;"/>
				</clipPath>
				
					<path style="clip-path:url(#SVGID_00000041975086910255190240000015550507951289617293_);fill:none;stroke:#D65D48;stroke-width:1.5;stroke-linejoin:round;" d="
					M126.4,152.6v-50"/>
			</g>
			<g>
				<defs>
					<rect id="SVGID_00000050664098394984060280000011596241286626175124_" x="54.3" y="11" width="195.3" height="183"/>
				</defs>
				<clipPath id="SVGID_00000022546965427794125830000000003285776221077129_">
					<use xlink:href="#SVGID_00000050664098394984060280000011596241286626175124_"  style="overflow:visible;"/>
				</clipPath>
				
					<path style="clip-path:url(#SVGID_00000022546965427794125830000000003285776221077129_);fill:none;stroke:#D65D48;stroke-width:1.5;stroke-linejoin:round;" d="
					M163.4,149.1v-38.8"/>
			</g>
			<g>
				<defs>
					<rect id="SVGID_00000090286814662699139920000002253346730242660538_" x="54.3" y="11" width="195.3" height="183"/>
				</defs>
				<clipPath id="SVGID_00000157294848751168862090000008018820499105623692_">
					<use xlink:href="#SVGID_00000090286814662699139920000002253346730242660538_"  style="overflow:visible;"/>
				</clipPath>
				
					<path style="clip-path:url(#SVGID_00000157294848751168862090000008018820499105623692_);fill:none;stroke:#D65D48;stroke-width:1.5;stroke-linejoin:round;" d="
					M189.6,150.1v-39.9"/>
			</g>
		</g>
		<g id="line2d_60">
			<g>
				<defs>
					<rect id="SVGID_00000026165763077233273120000003590072062807834295_" x="54.3" y="11" width="195.3" height="183"/>
				</defs>
				<clipPath id="SVGID_00000178162504063099626450000011253951600335997849_">
					<use xlink:href="#SVGID_00000026165763077233273120000003590072062807834295_"  style="overflow:visible;"/>
				</clipPath>
				
					<path style="clip-path:url(#SVGID_00000178162504063099626450000011253951600335997849_);fill:none;stroke:#D65D48;stroke-width:1.5;stroke-linejoin:round;stroke-dasharray:5.55,2.4;" d="
					M163.4,236v-86.9"/>
			</g>
		</g>
		<g id="line2d_61">
			<g>
				<defs>
					<rect id="SVGID_00000147903692980621650680000014723480095810803863_" x="54.3" y="11" width="195.3" height="183"/>
				</defs>
				<clipPath id="SVGID_00000082357857519988777350000007933094062259304341_">
					<use xlink:href="#SVGID_00000147903692980621650680000014723480095810803863_"  style="overflow:visible;"/>
				</clipPath>
				
					<path style="clip-path:url(#SVGID_00000082357857519988777350000007933094062259304341_);fill:none;stroke:#D65D48;stroke-width:1.5;stroke-linejoin:round;stroke-dasharray:5.55,2.4;" d="
					M189.6,236v-85.9"/>
			</g>
		</g>
		<g id="line2d_62">
			<g>
				<defs>
					<rect id="SVGID_00000108273616143356481760000004692841105232749233_" x="54.3" y="11" width="195.3" height="183"/>
				</defs>
				<clipPath id="SVGID_00000027565348094745451530000000150467599626978735_">
					<use xlink:href="#SVGID_00000108273616143356481760000004692841105232749233_"  style="overflow:visible;"/>
				</clipPath>
				
					<path style="clip-path:url(#SVGID_00000027565348094745451530000000150467599626978735_);fill:none;stroke:#FFD06F;stroke-width:1.5;stroke-linejoin:round;stroke-dasharray:5.55,2.4;" d="
					M63.2,41.6l63.2,67.8l37,55.2l26.2,53"/>
			</g>
		</g>
		<g id="line2d_63">
			<g>
				<defs>
					<rect id="SVGID_00000054965332148572656450000005885603325051765902_" x="54.3" y="11" width="195.3" height="183"/>
				</defs>
				<clipPath id="SVGID_00000119811148605771702590000013451031980441882288_">
					<use xlink:href="#SVGID_00000054965332148572656450000005885603325051765902_"  style="overflow:visible;"/>
				</clipPath>
				<g style="clip-path:url(#SVGID_00000119811148605771702590000013451031980441882288_);">
					<g>
						<path id="m7f17c2fcc2" class="st22" d="M63.2,45.8c0.8,0,1.6-0.3,2.1-0.9c0.6-0.6,0.9-1.3,0.9-2.1s-0.3-1.6-0.9-2.1
							c-0.6-0.6-1.3-0.9-2.1-0.9s-1.6,0.3-2.1,0.9c-0.6,0.6-0.9,1.3-0.9,2.1s0.3,1.6,0.9,2.1C61.6,45.5,62.4,45.8,63.2,45.8z"/>
					</g>
					<g>
						<path id="m7f17c2fcc2_00000178174479062010093220000015550826778404408751_" class="st22" d="M126.4,86.5
							c0.8,0,1.6-0.3,2.1-0.9c0.6-0.6,0.9-1.3,0.9-2.1s-0.3-1.6-0.9-2.1c-0.6-0.6-1.3-0.9-2.1-0.9s-1.6,0.3-2.1,0.9
							c-0.6,0.6-0.9,1.3-0.9,2.1s0.3,1.6,0.9,2.1C124.8,86.2,125.6,86.5,126.4,86.5z"/>
					</g>
					<g>
						<path id="m7f17c2fcc2_00000001633246711406603330000013406353820237837743_" class="st22" d="M163.4,82.8
							c0.8,0,1.6-0.3,2.1-0.9c0.6-0.6,0.9-1.3,0.9-2.1s-0.3-1.6-0.9-2.1c-0.6-0.6-1.3-0.9-2.1-0.9s-1.6,0.3-2.1,0.9
							c-0.6,0.6-0.9,1.3-0.9,2.1s0.3,1.6,0.9,2.1C161.8,82.5,162.6,82.8,163.4,82.8z"/>
					</g>
					<g>
						<path id="m7f17c2fcc2_00000121964536206567038370000010601011721667887258_" class="st22" d="M189.6,92.8
							c0.8,0,1.6-0.3,2.1-0.9c0.6-0.6,0.9-1.3,0.9-2.1s-0.3-1.6-0.9-2.1c-0.6-0.6-1.3-0.9-2.1-0.9s-1.6,0.3-2.1,0.9
							c-0.6,0.6-0.9,1.3-0.9,2.1s0.3,1.6,0.9,2.1C188.1,92.5,188.8,92.8,189.6,92.8z"/>
					</g>
					<g>
						<path id="m7f17c2fcc2_00000116941598361567166230000014109814392805536389_" class="st22" d="M210,100.3
							c0.8,0,1.6-0.3,2.1-0.9c0.6-0.6,0.9-1.3,0.9-2.1s-0.3-1.6-0.9-2.1c-0.6-0.6-1.3-0.9-2.1-0.9s-1.6,0.3-2.1,0.9
							c-0.6,0.6-0.9,1.3-0.9,2.1s0.3,1.6,0.9,2.1C208.4,100,209.2,100.3,210,100.3z"/>
					</g>
					<g>
						<path id="m7f17c2fcc2_00000111186623301750898110000008115794048863691393_" class="st22" d="M226.6,107.5
							c0.8,0,1.6-0.3,2.1-0.9c0.6-0.6,0.9-1.3,0.9-2.1s-0.3-1.6-0.9-2.1c-0.6-0.6-1.3-0.9-2.1-0.9s-1.6,0.3-2.1,0.9
							c-0.6,0.6-0.9,1.3-0.9,2.1s0.3,1.6,0.9,2.1C225.1,107.1,225.8,107.5,226.6,107.5z"/>
					</g>
					<g>
						<path id="m7f17c2fcc2_00000152975724191761547570000003295338982124624261_" class="st22" d="M240.7,105.9
							c0.8,0,1.6-0.3,2.1-0.9c0.6-0.6,0.9-1.3,0.9-2.1s-0.3-1.6-0.9-2.1c-0.6-0.6-1.3-0.9-2.1-0.9s-1.6,0.3-2.1,0.9
							c-0.6,0.6-0.9,1.3-0.9,2.1s0.3,1.6,0.9,2.1C239.1,105.6,239.9,105.9,240.7,105.9z"/>
					</g>
				</g>
			</g>
		</g>
		<g id="line2d_64">
			<g>
				<defs>
					<rect id="SVGID_00000170264392231933004150000011321212305385404078_" x="54.3" y="11" width="195.3" height="183"/>
				</defs>
				<clipPath id="SVGID_00000103257761648079686480000012276651855610096826_">
					<use xlink:href="#SVGID_00000170264392231933004150000011321212305385404078_"  style="overflow:visible;"/>
				</clipPath>
				<g style="clip-path:url(#SVGID_00000103257761648079686480000012276651855610096826_);">
					<g>
						<path id="m37bee6e656" class="st24" d="M63.2,44.6c0.8,0,1.6-0.3,2.1-0.9c0.6-0.6,0.9-1.3,0.9-2.1s-0.3-1.6-0.9-2.1
							c-0.6-0.6-1.3-0.9-2.1-0.9s-1.6,0.3-2.1,0.9c-0.6,0.6-0.9,1.3-0.9,2.1s0.3,1.6,0.9,2.1C61.6,44.3,62.4,44.6,63.2,44.6z"/>
					</g>
					<g>
						<path id="m37bee6e656_00000101822064060177017360000016266262653927222947_" class="st24" d="M126.4,115.9
							c0.8,0,1.6-0.3,2.1-0.9c0.6-0.6,0.9-1.3,0.9-2.1s-0.3-1.6-0.9-2.1c-0.6-0.6-1.3-0.9-2.1-0.9s-1.6,0.3-2.1,0.9
							c-0.6,0.6-0.9,1.3-0.9,2.1s0.3,1.6,0.9,2.1C124.8,115.6,125.6,115.9,126.4,115.9z"/>
					</g>
					<g>
						<path id="m37bee6e656_00000098218060494283308400000005267767784933625788_" class="st24" d="M163.4,152.1
							c0.8,0,1.6-0.3,2.1-0.9c0.6-0.6,0.9-1.3,0.9-2.1c0-0.8-0.3-1.6-0.9-2.1c-0.6-0.6-1.3-0.9-2.1-0.9s-1.6,0.3-2.1,0.9
							c-0.6,0.6-0.9,1.3-0.9,2.1c0,0.8,0.3,1.6,0.9,2.1C161.8,151.8,162.6,152.1,163.4,152.1z"/>
					</g>
					<g>
						<path id="m37bee6e656_00000181780393394942321010000002593648049789594531_" class="st24" d="M189.6,153.1
							c0.8,0,1.6-0.3,2.1-0.9c0.6-0.6,0.9-1.3,0.9-2.1c0-0.8-0.3-1.6-0.9-2.1c-0.6-0.6-1.3-0.9-2.1-0.9s-1.6,0.3-2.1,0.9
							c-0.6,0.6-0.9,1.3-0.9,2.1c0,0.8,0.3,1.6,0.9,2.1C188.1,152.7,188.8,153.1,189.6,153.1z"/>
					</g>
				</g>
			</g>
		</g>
		<g id="patch_3">
			<path class="st25" d="M54.3,194V11"/>
		</g>
		<g id="patch_4">
			<path class="st25" d="M249.6,194V11"/>
		</g>
		<g id="patch_5">
			<path class="st25" d="M54.3,194h195.3"/>
		</g>
		<g id="patch_6">
			<path class="st25" d="M54.3,11h195.3"/>
		</g>
		<g id="text_14">
			<g transform="translate(58.478819 186.482387) scale(0.13 -0.13)">
				<g>
					<path id="DejaVuSans-31_00000028320610291596613190000014108724408767978909_" d="M12.4,8.3h16.1v55.6L11,60.4v9l17.4,3.5h9.9
						V8.3h16.1V0h-42V8.3z"/>
				</g>
				<g>
					<path id="DejaVuSans-30_00000052085356782995840370000004365394394167996307_" d="M95.4,66.4c-5.1,0-8.9-2.5-11.5-7.5
						c-2.6-5-3.8-12.5-3.8-22.5c0-10,1.3-17.5,3.8-22.5c2.6-5,6.4-7.5,11.5-7.5c5.1,0,8.9,2.5,11.5,7.5c2.6,5,3.8,12.5,3.8,22.5
						c0,10-1.3,17.5-3.8,22.5C104.4,63.9,100.5,66.4,95.4,66.4z M95.4,74.2c8.2,0,14.4-3.2,18.7-9.7c4.3-6.5,6.5-15.8,6.5-28.1
						c0-12.3-2.2-21.6-6.5-28.1c-4.3-6.5-10.6-9.7-18.7-9.7c-8.2,0-14.4,3.2-18.7,9.7c-4.3,6.5-6.5,15.8-6.5,28.1
						c0,12.3,2.2,21.7,6.5,28.1C81,71,87.2,74.2,95.4,74.2z"/>
				</g>
				<g>
					<path id="DejaVuSans-30_00000034083356726963434080000000201701185656855211_" d="M159,66.4c-5.1,0-8.9-2.5-11.5-7.5
						c-2.6-5-3.8-12.5-3.8-22.5c0-10,1.3-17.5,3.8-22.5c2.6-5,6.4-7.5,11.5-7.5c5.1,0,8.9,2.5,11.5,7.5c2.6,5,3.8,12.5,3.8,22.5
						c0,10-1.3,17.5-3.8,22.5C168,63.9,164.1,66.4,159,66.4z M159,74.2c8.2,0,14.4-3.2,18.7-9.7c4.3-6.5,6.5-15.8,6.5-28.1
						c0-12.3-2.2-21.6-6.5-28.1c-4.3-6.5-10.6-9.7-18.7-9.7c-8.2,0-14.4,3.2-18.7,9.7c-4.3,6.5-6.5,15.8-6.5,28.1
						c0,12.3,2.2,21.7,6.5,28.1C144.6,71,150.9,74.2,159,74.2z"/>
				</g>
				<g>
					<path id="DejaVuSans-30_00000059293365495251493020000009238379556380346020_" d="M222.7,66.4c-5.1,0-8.9-2.5-11.5-7.5
						c-2.6-5-3.8-12.5-3.8-22.5c0-10,1.3-17.5,3.8-22.5c2.6-5,6.4-7.5,11.5-7.5c5.1,0,8.9,2.5,11.5,7.5c2.6,5,3.8,12.5,3.8,22.5
						c0,10-1.3,17.5-3.8,22.5C231.6,63.9,227.8,66.4,222.7,66.4z M222.7,74.2c8.2,0,14.4-3.2,18.7-9.7c4.3-6.5,6.5-15.8,6.5-28.1
						c0-12.3-2.2-21.6-6.5-28.1c-4.3-6.5-10.6-9.7-18.7-9.7c-8.2,0-14.4,3.2-18.7,9.7c-4.3,6.5-6.5,15.8-6.5,28.1
						c0,12.3,2.2,21.7,6.5,28.1C208.2,71,214.5,74.2,222.7,74.2z"/>
				</g>
				<g>
					<path id="DejaVuSans-20_00000143574946537503990780000014398836363974883968_" d="M254.5,0"/>
				</g>
				<g>
					<path id="DejaVuSans-4d" d="M296.1,72.9h14.7l18.6-49.6l18.7,49.6h14.7V0h-9.6v64l-18.8-50h-9.9l-18.8,50V0h-9.6V72.9z"/>
				</g>
				<g>
					<path id="DejaVuSans-65_00000044893511237168650520000004106070110737906362_" d="M428.8,29.6v-4.4h-41.3
						c0.4-6.2,2.3-10.9,5.6-14.1c3.3-3.2,8-4.9,13.9-4.9c3.4,0,6.8,0.4,10,1.3c3.2,0.8,6.5,2.1,9.7,3.8V2.8
						c-3.2-1.4-6.5-2.4-9.9-3.1c-3.4-0.7-6.8-1.1-10.3-1.1c-8.7,0-15.6,2.5-20.7,7.6c-5.1,5.1-7.6,12-7.6,20.6
						c0,8.9,2.4,16,7.2,21.3c4.8,5.3,11.4,7.9,19.6,7.9c7.4,0,13.2-2.4,17.5-7.1C426.6,44.2,428.8,37.7,428.8,29.6z M419.8,32.2
						c-0.1,4.9-1.4,8.8-4.1,11.7c-2.7,2.9-6.2,4.4-10.7,4.4c-5,0-9-1.4-12-4.2c-3-2.8-4.7-6.8-5.2-12L419.8,32.2z"/>
				</g>
				<g>
					<path id="DejaVuSans-61_00000016044012734226134520000016283447839948442240_" d="M468.4,27.5c-7.3,0-12.3-0.8-15.1-2.5
						c-2.8-1.7-4.2-4.5-4.2-8.5c0-3.2,1.1-5.7,3.2-7.6c2.1-1.9,5-2.8,8.6-2.8c5,0,9,1.8,12,5.3c3,3.5,4.5,8.2,4.5,14.1v2H468.4z
						 M486.3,31.2V0h-9v8.3c-2.1-3.3-4.6-5.8-7.7-7.3s-6.8-2.4-11.2-2.4c-5.6,0-10,1.6-13.4,4.7c-3.3,3.1-5,7.4-5,12.6
						c0,6.1,2.1,10.8,6.2,13.9c4.1,3.1,10.3,4.7,18.4,4.7h12.6v0.9c0,4.1-1.4,7.3-4.1,9.6s-6.5,3.4-11.5,3.4c-3.1,0-6.2-0.4-9.1-1.1
						c-3-0.8-5.8-1.9-8.5-3.4v8.3c3.3,1.3,6.5,2.2,9.6,2.8c3.1,0.6,6.1,1,9,1c7.9,0,13.8-2.1,17.7-6.2
						C484.3,45.7,486.3,39.5,486.3,31.2z"/>
				</g>
				<g>
					<path id="DejaVuSans-73" d="M539.6,53.1v-8.5c-2.5,1.3-5.2,2.3-7.9,2.9c-2.7,0.7-5.6,1-8.5,1c-4.5,0-7.8-0.7-10-2
						c-2.2-1.4-3.3-3.4-3.3-6.2c0-2.1,0.8-3.7,2.4-4.9c1.6-1.2,4.8-2.3,9.6-3.4l3.1-0.7c6.4-1.4,10.9-3.3,13.6-5.8s4-6,4-10.4
						c0-5.1-2-9.1-6-12.1c-4-3-9.5-4.4-16.6-4.4c-2.9,0-6,0.3-9.2,0.9c-3.2,0.6-6.5,1.4-10,2.6v9.3c3.3-1.7,6.6-3,9.8-3.9
						c3.2-0.9,6.4-1.3,9.6-1.3c4.2,0,7.5,0.7,9.8,2.2c2.3,1.4,3.4,3.5,3.4,6.1c0,2.4-0.8,4.3-2.5,5.6c-1.6,1.3-5.2,2.6-10.8,3.8
						l-3.1,0.7c-5.6,1.2-9.6,3-12.1,5.4c-2.5,2.4-3.7,5.8-3.7,10c0,5.1,1.8,9.1,5.5,11.9c3.6,2.8,8.8,4.2,15.5,4.2
						c3.3,0,6.4-0.2,9.4-0.7C534.5,54.8,537.2,54.1,539.6,53.1z"/>
				</g>
				<g>
					<path id="DejaVuSans-2e" d="M558.1,12.4h10.3V0h-10.3V12.4z"/>
				</g>
			</g>
		</g>
	</g>
</g>
</svg>
