<?xml version="1.0" encoding="utf-8"?>
<!-- Generator: Adobe Illustrator 27.5.0, SVG Export Plug-In . SVG Version: 6.00 Build 0)  -->
<svg version="1.1" id="Layer_1" xmlns="http://www.w3.org/2000/svg" xmlns:xlink="http://www.w3.org/1999/xlink" x="0px" y="0px"
	 viewBox="0 0 256.8 235" style="enable-background:new 0 0 256.8 235;" xml:space="preserve">
<style type="text/css">
	.st0{fill:#FFFFFF;}
	.st1{stroke:#000000;stroke-width:0.8;stroke-linejoin:round;}
	.st2{stroke:#000000;stroke-width:0.6;stroke-linejoin:round;}
	
		.st3{clip-path:url(#SVGID_00000142153541779197485940000009193558306138401698_);fill:none;stroke:#3A76AE;stroke-width:1.5;stroke-linejoin:round;}
	
		.st4{clip-path:url(#SVGID_00000121244513554578357040000004642447630745050025_);fill:none;stroke:#3A76AE;stroke-width:1.5;stroke-linejoin:round;}
	
		.st5{clip-path:url(#SVGID_00000159456815090490967820000011469214158893257878_);fill:none;stroke:#3A76AE;stroke-width:1.5;stroke-linejoin:round;}
	
		.st6{clip-path:url(#SVGID_00000032635610915976020070000014931119079489310378_);fill:none;stroke:#3A76AE;stroke-width:1.5;stroke-linejoin:round;}
	
		.st7{clip-path:url(#SVGID_00000104669469997511402160000016088479023465257875_);fill:none;stroke:#3A76AE;stroke-width:1.5;stroke-linejoin:round;}
	
		.st8{clip-path:url(#SVGID_00000050642120332290712010000003938756637196373658_);fill:none;stroke:#3A76AE;stroke-width:1.5;stroke-linejoin:round;}
	
		.st9{clip-path:url(#SVGID_00000060009914973786521870000007282704585500601008_);fill:none;stroke:#3A76AE;stroke-width:1.5;stroke-linejoin:round;}
	
		.st10{clip-path:url(#SVGID_00000010300782969090435930000006674037932804946869_);fill:none;stroke:#5BAEFF;stroke-width:1.5;stroke-linejoin:round;stroke-dasharray:5.55,2.4;}
	
		.st11{clip-path:url(#SVGID_00000142163395722136357460000010320465903700957334_);fill:none;stroke:#5BAEFF;stroke-width:1.5;stroke-linejoin:round;stroke-dasharray:5.55,2.4;}
	
		.st12{clip-path:url(#SVGID_00000137844711573590842460000016926877632747134378_);fill:none;stroke:#5BAEFF;stroke-width:1.5;stroke-linejoin:round;stroke-dasharray:5.55,2.4;}
	
		.st13{clip-path:url(#SVGID_00000086683520044198474580000009283154463563558538_);fill:none;stroke:#9ED17B;stroke-width:1.5;stroke-linejoin:round;stroke-dasharray:5.55,2.4;}
	
		.st14{clip-path:url(#SVGID_00000181802797552945879850000003602307175824444092_);fill:none;stroke:#D65D48;stroke-width:1.5;stroke-linejoin:round;}
	
		.st15{clip-path:url(#SVGID_00000176742953323572334360000012779163842002152370_);fill:none;stroke:#D65D48;stroke-width:1.5;stroke-linejoin:round;}
	
		.st16{clip-path:url(#SVGID_00000118384266607058500490000017273473803755126674_);fill:none;stroke:#D65D48;stroke-width:1.5;stroke-linejoin:round;}
	
		.st17{clip-path:url(#SVGID_00000132080026110413917220000006460849773182419601_);fill:none;stroke:#D65D48;stroke-width:1.5;stroke-linejoin:round;}
	
		.st18{clip-path:url(#SVGID_00000168813708090842538000000017218294594783120777_);fill:none;stroke:#D65D48;stroke-width:1.5;stroke-linejoin:round;stroke-dasharray:5.55,2.4;}
	
		.st19{clip-path:url(#SVGID_00000048485549110695379810000013453936379064284043_);fill:none;stroke:#D65D48;stroke-width:1.5;stroke-linejoin:round;stroke-dasharray:5.55,2.4;}
	
		.st20{clip-path:url(#SVGID_00000157269549187001065570000005000274646087305387_);fill:none;stroke:#FFD06F;stroke-width:1.5;stroke-linejoin:round;stroke-dasharray:5.55,2.4;}
	.st21{clip-path:url(#SVGID_00000013910314224457646610000016342356777944409219_);}
	.st22{fill:#90BCD5;stroke:#3A76AE;stroke-linejoin:round;}
	.st23{clip-path:url(#SVGID_00000108279668022361102230000007600676326936557478_);}
	.st24{fill:#E3B0A3;stroke:#D65D48;stroke-linejoin:round;}
	.st25{fill:none;stroke:#000000;stroke-width:0.8;stroke-linecap:square;}
</style>
<g id="figure_1">
	<g id="patch_1">
		<path class="st0" d="M256.8,0"/>
		<path class="st0" d="M0,235h256.8"/>
	</g>
	<g id="axes_1">
		<g id="matplotlib.axis_1">
			<g id="xtick_1">
				<g id="line2d_1">
					<g>
						<g>
							<path id="maa3b9978e0_00000131331974576999001180000013714897081692314280_" class="st1" d="M210,194"/>
						</g>
					</g>
				</g>
			</g>
			<g id="xtick_2">
				<g id="line2d_2">
					<g>
						<g>
							<path id="m024d28a53f_00000002346962915814369150000007532393596499286197_" class="st2" d="M63.2,194"/>
						</g>
					</g>
				</g>
			</g>
			<g id="xtick_3">
				<g id="line2d_3">
					<g>
						<g>
							<path id="m024d28a53f_00000073001478620568056330000004158130089743018152_" class="st2" d="M100.2,194"/>
						</g>
					</g>
				</g>
			</g>
			<g id="xtick_4">
				<g id="line2d_4">
					<g>
						<g>
							<path id="m024d28a53f_00000060009106702168124230000015585504246669997491_" class="st2" d="M126.4,194"/>
						</g>
					</g>
				</g>
			</g>
			<g id="xtick_5">
				<g id="line2d_5">
					<g>
						<g>
							<path id="m024d28a53f_00000140713247819752567520000005256916901597605038_" class="st2" d="M146.8,194"/>
						</g>
					</g>
				</g>
			</g>
			<g id="xtick_6">
				<g id="line2d_6">
					<g>
						<g>
							<path id="m024d28a53f_00000095330238149580108330000005642888473295305392_" class="st2" d="M163.4,194"/>
						</g>
					</g>
				</g>
			</g>
			<g id="xtick_7">
				<g id="line2d_7">
					<g>
						<g>
							<path id="m024d28a53f_00000042708050793961294560000007666640801347548857_" class="st2" d="M177.5,194"/>
						</g>
					</g>
				</g>
			</g>
			<g id="xtick_8">
				<g id="line2d_8">
					<g>
						<g>
							<path id="m024d28a53f_00000044867848617071286330000003210598084226128800_" class="st2" d="M189.6,194"/>
						</g>
					</g>
				</g>
			</g>
			<g id="xtick_9">
				<g id="line2d_9">
					<g>
						<g>
							<path id="m024d28a53f_00000104675880637407666860000007170611009901605809_" class="st2" d="M200.4,194"/>
						</g>
					</g>
				</g>
			</g>
		</g>
		<g id="matplotlib.axis_2">
			<g id="ytick_1">
				<g id="line2d_10">
					<g>
						<g>
							<path id="mdbf5981a37_00000030475893277267063470000011441574005181954444_" class="st1" d="M54.3,194"/>
						</g>
					</g>
				</g>
			</g>
			<g id="ytick_2">
				<g id="line2d_11">
					<g>
						<g>
							<path id="mdbf5981a37_00000016067029409999839800000002484717059655657137_" class="st1" d="M54.3,157.4"/>
						</g>
					</g>
				</g>
			</g>
			<g id="ytick_3">
				<g id="line2d_12">
					<g>
						<g>
							<path id="mdbf5981a37_00000095302301008078248460000003408186795522767782_" class="st1" d="M54.3,120.8"/>
						</g>
					</g>
				</g>
			</g>
			<g id="ytick_4">
				<g id="line2d_13">
					<g>
						<g>
							<path id="mdbf5981a37_00000082343980391382733880000016116378419791428502_" class="st1" d="M54.3,84.2"/>
						</g>
					</g>
				</g>
			</g>
			<g id="ytick_5">
				<g id="line2d_14">
					<g>
						<g>
							<path id="mdbf5981a37_00000141449305140795549600000008966640958606916766_" class="st1" d="M54.3,47.6"/>
						</g>
					</g>
				</g>
			</g>
			<g id="ytick_6">
				<g id="line2d_15">
					<g>
						<g>
							<path id="mdbf5981a37_00000041265503111284211980000008934947826109102271_" class="st1" d="M54.3,11"/>
						</g>
					</g>
				</g>
			</g>
			<g id="ytick_7">
				<g id="line2d_16">
					<g>
						<g>
							<path id="me54d605c2f_00000158745316818093719520000009826465382846823563_" class="st2" d="M54.3,182.9"/>
						</g>
					</g>
				</g>
			</g>
			<g id="ytick_8">
				<g id="line2d_17">
					<g>
						<g>
							<path id="me54d605c2f_00000008143328503568468920000012268028212522761663_" class="st2" d="M54.3,176.5"/>
						</g>
					</g>
				</g>
			</g>
			<g id="ytick_9">
				<g id="line2d_18">
					<g>
						<g>
							<path id="me54d605c2f_00000044162724126278711790000001981747345748615575_" class="st2" d="M54.3,171.9"/>
						</g>
					</g>
				</g>
			</g>
			<g id="ytick_10">
				<g id="line2d_19">
					<g>
						<g>
							<path id="me54d605c2f_00000131340137071936032060000013085515785862490291_" class="st2" d="M54.3,168.4"/>
						</g>
					</g>
				</g>
			</g>
			<g id="ytick_11">
				<g id="line2d_20">
					<g>
						<g>
							<path id="me54d605c2f_00000047768841267580248180000004526514514214847926_" class="st2" d="M54.3,165.5"/>
						</g>
					</g>
				</g>
			</g>
			<g id="ytick_12">
				<g id="line2d_21">
					<g>
						<g>
							<path id="me54d605c2f_00000183938593881807511690000011285622322352217740_" class="st2" d="M54.3,163"/>
						</g>
					</g>
				</g>
			</g>
			<g id="ytick_13">
				<g id="line2d_22">
					<g>
						<g>
							<path id="me54d605c2f_00000120533934546690996660000008035573292322098329_" class="st2" d="M54.3,160.9"/>
						</g>
					</g>
				</g>
			</g>
			<g id="ytick_14">
				<g id="line2d_23">
					<g>
						<g>
							<path id="me54d605c2f_00000164494490823681603390000004014050352607033226_" class="st2" d="M54.3,159"/>
						</g>
					</g>
				</g>
			</g>
			<g id="ytick_15">
				<g id="line2d_24">
					<g>
						<g>
							<path id="me54d605c2f_00000093891375636244775250000015549593918607267466_" class="st2" d="M54.3,146.3"/>
						</g>
					</g>
				</g>
			</g>
			<g id="ytick_16">
				<g id="line2d_25">
					<g>
						<g>
							<path id="me54d605c2f_00000026125540810414403680000009946639815760722331_" class="st2" d="M54.3,139.9"/>
						</g>
					</g>
				</g>
			</g>
			<g id="ytick_17">
				<g id="line2d_26">
					<g>
						<g>
							<path id="me54d605c2f_00000160894069619759674380000003626340410899813791_" class="st2" d="M54.3,135.3"/>
						</g>
					</g>
				</g>
			</g>
			<g id="ytick_18">
				<g id="line2d_27">
					<g>
						<g>
							<path id="me54d605c2f_00000149362463779023249880000009886006688495250610_" class="st2" d="M54.3,131.8"/>
						</g>
					</g>
				</g>
			</g>
			<g id="ytick_19">
				<g id="line2d_28">
					<g>
						<g>
							<path id="me54d605c2f_00000034059098954488408400000015744348105136315058_" class="st2" d="M54.3,128.9"/>
						</g>
					</g>
				</g>
			</g>
			<g id="ytick_20">
				<g id="line2d_29">
					<g>
						<g>
							<path id="me54d605c2f_00000055665974042499903750000005768082888831280776_" class="st2" d="M54.3,126.4"/>
						</g>
					</g>
				</g>
			</g>
			<g id="ytick_21">
				<g id="line2d_30">
					<g>
						<g>
							<path id="me54d605c2f_00000009590520603722551570000006629447014702958987_" class="st2" d="M54.3,124.3"/>
						</g>
					</g>
				</g>
			</g>
			<g id="ytick_22">
				<g id="line2d_31">
					<g>
						<g>
							<path id="me54d605c2f_00000138562239021086524650000008816582225240596354_" class="st2" d="M54.3,122.4"/>
						</g>
					</g>
				</g>
			</g>
			<g id="ytick_23">
				<g id="line2d_32">
					<g>
						<g>
							<path id="me54d605c2f_00000144338114652481738190000000689707983309122183_" class="st2" d="M54.3,109.8"/>
						</g>
					</g>
				</g>
			</g>
			<g id="ytick_24">
				<g id="line2d_33">
					<g>
						<g>
							<path id="me54d605c2f_00000177478126248516121310000013366066292202387885_" class="st2" d="M54.3,103.3"/>
						</g>
					</g>
				</g>
			</g>
			<g id="ytick_25">
				<g id="line2d_34">
					<g>
						<g>
							<path id="me54d605c2f_00000172407915170081212700000007224242237985032078_" class="st2" d="M54.3,98.7"/>
						</g>
					</g>
				</g>
			</g>
			<g id="ytick_26">
				<g id="line2d_35">
					<g>
						<g>
							<path id="me54d605c2f_00000057119057940312914670000012775195592793099937_" class="st2" d="M54.3,95.2"/>
						</g>
					</g>
				</g>
			</g>
			<g id="ytick_27">
				<g id="line2d_36">
					<g>
						<g>
							<path id="me54d605c2f_00000134962857688243153990000009116608366544933302_" class="st2" d="M54.3,92.3"/>
						</g>
					</g>
				</g>
			</g>
			<g id="ytick_28">
				<g id="line2d_37">
					<g>
						<g>
							<path id="me54d605c2f_00000014614904914439669850000006558458995541236414_" class="st2" d="M54.3,89.8"/>
						</g>
					</g>
				</g>
			</g>
			<g id="ytick_29">
				<g id="line2d_38">
					<g>
						<g>
							<path id="me54d605c2f_00000116221090064832323270000010392882655283127174_" class="st2" d="M54.3,87.7"/>
						</g>
					</g>
				</g>
			</g>
			<g id="ytick_30">
				<g id="line2d_39">
					<g>
						<g>
							<path id="me54d605c2f_00000076604786458563064920000001547709816116579203_" class="st2" d="M54.3,85.9"/>
						</g>
					</g>
				</g>
			</g>
			<g id="ytick_31">
				<g id="line2d_40">
					<g>
						<g>
							<path id="me54d605c2f_00000090981745558135879960000004262559871519824035_" class="st2" d="M54.3,73.2"/>
						</g>
					</g>
				</g>
			</g>
			<g id="ytick_32">
				<g id="line2d_41">
					<g>
						<g>
							<path id="me54d605c2f_00000171701397040560104760000017479559049130536894_" class="st2" d="M54.3,66.7"/>
						</g>
					</g>
				</g>
			</g>
			<g id="ytick_33">
				<g id="line2d_42">
					<g>
						<g>
							<path id="me54d605c2f_00000124859729989101243630000018313957626910158734_" class="st2" d="M54.3,62.2"/>
						</g>
					</g>
				</g>
			</g>
			<g id="ytick_34">
				<g id="line2d_43">
					<g>
						<g>
							<path id="me54d605c2f_00000037662540994014314860000008260864738860699805_" class="st2" d="M54.3,58.6"/>
						</g>
					</g>
				</g>
			</g>
			<g id="ytick_35">
				<g id="line2d_44">
					<g>
						<g>
							<path id="me54d605c2f_00000027590616978837707320000011702932466440113282_" class="st2" d="M54.3,55.7"/>
						</g>
					</g>
				</g>
			</g>
			<g id="ytick_36">
				<g id="line2d_45">
					<g>
						<g>
							<path id="me54d605c2f_00000003078029401370391780000013300591034072661162_" class="st2" d="M54.3,53.3"/>
						</g>
					</g>
				</g>
			</g>
			<g id="ytick_37">
				<g id="line2d_46">
					<g>
						<g>
							<path id="me54d605c2f_00000124880986713024145890000014079874028452303498_" class="st2" d="M54.3,51.1"/>
						</g>
					</g>
				</g>
			</g>
			<g id="ytick_38">
				<g id="line2d_47">
					<g>
						<g>
							<path id="me54d605c2f_00000169556249532477358690000014672919981675959702_" class="st2" d="M54.3,49.3"/>
						</g>
					</g>
				</g>
			</g>
			<g id="ytick_39">
				<g id="line2d_48">
					<g>
						<g>
							<path id="me54d605c2f_00000157308186414209101900000006577525468159869873_" class="st2" d="M54.3,36.6"/>
						</g>
					</g>
				</g>
			</g>
			<g id="ytick_40">
				<g id="line2d_49">
					<g>
						<g>
							<path id="me54d605c2f_00000035533085586424255340000005630885163985842071_" class="st2" d="M54.3,30.1"/>
						</g>
					</g>
				</g>
			</g>
			<g id="ytick_41">
				<g id="line2d_50">
					<g>
						<g>
							<path id="me54d605c2f_00000016074046768007928810000016610268372861726900_" class="st2" d="M54.3,25.6"/>
						</g>
					</g>
				</g>
			</g>
			<g id="ytick_42">
				<g id="line2d_51">
					<g>
						<g>
							<path id="me54d605c2f_00000179608926842104977390000009976706427735874457_" class="st2" d="M54.3,22"/>
						</g>
					</g>
				</g>
			</g>
			<g id="ytick_43">
				<g id="line2d_52">
					<g>
						<g>
							<path id="me54d605c2f_00000056402226204645874600000011340235344259470211_" class="st2" d="M54.3,19.1"/>
						</g>
					</g>
				</g>
			</g>
			<g id="ytick_44">
				<g id="line2d_53">
					<g>
						<g>
							<path id="me54d605c2f_00000044155872181737939420000001734512092469392037_" class="st2" d="M54.3,16.7"/>
						</g>
					</g>
				</g>
			</g>
			<g id="ytick_45">
				<g id="line2d_54">
					<g>
						<g>
							<path id="me54d605c2f_00000062901017836170167210000001312967346809075880_" class="st2" d="M54.3,14.5"/>
						</g>
					</g>
				</g>
			</g>
			<g id="ytick_46">
				<g id="line2d_55">
					<g>
						<g>
							<path id="me54d605c2f_00000024002149868098636420000011009848669494985619_" class="st2" d="M54.3,12.7"/>
						</g>
					</g>
				</g>
			</g>
		</g>
		<g id="LineCollection_1">
			<g>
				<defs>
					<rect id="SVGID_1_" x="54.3" y="11" width="195.3" height="183"/>
				</defs>
				<clipPath id="SVGID_00000018957184033461332000000016465370343613502883_">
					<use xlink:href="#SVGID_1_"  style="overflow:visible;"/>
				</clipPath>
				
					<path style="clip-path:url(#SVGID_00000018957184033461332000000016465370343613502883_);fill:none;stroke:#3A76AE;stroke-width:1.5;stroke-linejoin:round;" d="
					M63.2,44v-2.2"/>
			</g>
			<g>
				<defs>
					<rect id="SVGID_00000145748371513910883690000012428354134345427896_" x="54.3" y="11" width="195.3" height="183"/>
				</defs>
				<clipPath id="SVGID_00000098904275999488609930000013417618297636409243_">
					<use xlink:href="#SVGID_00000145748371513910883690000012428354134345427896_"  style="overflow:visible;"/>
				</clipPath>
				
					<path style="clip-path:url(#SVGID_00000098904275999488609930000013417618297636409243_);fill:none;stroke:#3A76AE;stroke-width:1.5;stroke-linejoin:round;" d="
					M126.4,104.3V74.8"/>
			</g>
			<g>
				<defs>
					<rect id="SVGID_00000050640764822557876470000001362892067883490963_" x="54.3" y="11" width="195.3" height="183"/>
				</defs>
				<clipPath id="SVGID_00000086683249885172738520000012354937284810166947_">
					<use xlink:href="#SVGID_00000050640764822557876470000001362892067883490963_"  style="overflow:visible;"/>
				</clipPath>
				
					<path style="clip-path:url(#SVGID_00000086683249885172738520000012354937284810166947_);fill:none;stroke:#3A76AE;stroke-width:1.5;stroke-linejoin:round;" d="
					M163.4,93.4V72.6"/>
			</g>
			<g>
				<defs>
					<rect id="SVGID_00000183243138209057144720000009835436985585225602_" x="54.3" y="11" width="195.3" height="183"/>
				</defs>
				<clipPath id="SVGID_00000030484474131708184760000015552193315933101496_">
					<use xlink:href="#SVGID_00000183243138209057144720000009835436985585225602_"  style="overflow:visible;"/>
				</clipPath>
				
					<path style="clip-path:url(#SVGID_00000030484474131708184760000015552193315933101496_);fill:none;stroke:#3A76AE;stroke-width:1.5;stroke-linejoin:round;" d="
					M189.6,139.9V77.4"/>
			</g>
			<g>
				<defs>
					<rect id="SVGID_00000121967311679956968970000002062060776947519116_" x="54.3" y="11" width="195.3" height="183"/>
				</defs>
				<clipPath id="SVGID_00000158732837965581672270000003166665509770858633_">
					<use xlink:href="#SVGID_00000121967311679956968970000002062060776947519116_"  style="overflow:visible;"/>
				</clipPath>
				
					<path style="clip-path:url(#SVGID_00000158732837965581672270000003166665509770858633_);fill:none;stroke:#3A76AE;stroke-width:1.5;stroke-linejoin:round;" d="
					M210,97.3V79.9"/>
			</g>
			<g>
				<defs>
					<rect id="SVGID_00000107553921726526291640000012693622435945648799_" x="54.3" y="11" width="195.3" height="183"/>
				</defs>
				<clipPath id="SVGID_00000109009944466970383760000007367141399090936250_">
					<use xlink:href="#SVGID_00000107553921726526291640000012693622435945648799_"  style="overflow:visible;"/>
				</clipPath>
				
					<path style="clip-path:url(#SVGID_00000109009944466970383760000007367141399090936250_);fill:none;stroke:#3A76AE;stroke-width:1.5;stroke-linejoin:round;" d="
					M226.6,104.5V82.2"/>
			</g>
			<g>
				<defs>
					<rect id="SVGID_00000123404093196281068640000000948987256543485614_" x="54.3" y="11" width="195.3" height="183"/>
				</defs>
				<clipPath id="SVGID_00000020372974138217092080000009924310053120917409_">
					<use xlink:href="#SVGID_00000123404093196281068640000000948987256543485614_"  style="overflow:visible;"/>
				</clipPath>
				
					<path style="clip-path:url(#SVGID_00000020372974138217092080000009924310053120917409_);fill:none;stroke:#3A76AE;stroke-width:1.5;stroke-linejoin:round;" d="
					M240.7,102.9V81.4"/>
			</g>
		</g>
		<g id="line2d_56">
			<g>
				<defs>
					<rect id="SVGID_00000123400280842775661180000016510218820655824821_" x="54.3" y="11" width="195.3" height="183"/>
				</defs>
				<clipPath id="SVGID_00000150085674635590885720000002857668852303846034_">
					<use xlink:href="#SVGID_00000123400280842775661180000016510218820655824821_"  style="overflow:visible;"/>
				</clipPath>
				
					<path style="clip-path:url(#SVGID_00000150085674635590885720000002857668852303846034_);fill:none;stroke:#5BAEFF;stroke-width:1.5;stroke-linejoin:round;stroke-dasharray:5.55,2.4;" d="
					M210,236V97.3"/>
			</g>
		</g>
		<g id="line2d_57">
			<g>
				<defs>
					<rect id="SVGID_00000011017084163537117850000012438983542404121254_" x="54.3" y="11" width="195.3" height="183"/>
				</defs>
				<clipPath id="SVGID_00000069393141629794155740000011438101236875878536_">
					<use xlink:href="#SVGID_00000011017084163537117850000012438983542404121254_"  style="overflow:visible;"/>
				</clipPath>
				
					<path style="clip-path:url(#SVGID_00000069393141629794155740000011438101236875878536_);fill:none;stroke:#5BAEFF;stroke-width:1.5;stroke-linejoin:round;stroke-dasharray:5.55,2.4;" d="
					M226.6,236V104.5"/>
			</g>
		</g>
		<g id="line2d_58">
			<g>
				<defs>
					<rect id="SVGID_00000109708822246029671130000008232353747028352443_" x="54.3" y="11" width="195.3" height="183"/>
				</defs>
				<clipPath id="SVGID_00000179614899711108236020000011262286378207394182_">
					<use xlink:href="#SVGID_00000109708822246029671130000008232353747028352443_"  style="overflow:visible;"/>
				</clipPath>
				
					<path style="clip-path:url(#SVGID_00000179614899711108236020000011262286378207394182_);fill:none;stroke:#5BAEFF;stroke-width:1.5;stroke-linejoin:round;stroke-dasharray:5.55,2.4;" d="
					M240.7,236v-133"/>
			</g>
		</g>
		<g id="line2d_59">
			<g>
				<defs>
					<rect id="SVGID_00000034799410472993828110000000184568117070666880_" x="54.3" y="11" width="195.3" height="183"/>
				</defs>
				<clipPath id="SVGID_00000088098566734850682260000012294644210633164458_">
					<use xlink:href="#SVGID_00000034799410472993828110000000184568117070666880_"  style="overflow:visible;"/>
				</clipPath>
				
					<path style="clip-path:url(#SVGID_00000088098566734850682260000012294644210633164458_);fill:none;stroke:#9ED17B;stroke-width:1.5;stroke-linejoin:round;stroke-dasharray:5.55,2.4;" d="
					M63.2,42.8l63.2,38.7l37-1.1l26.2,8.9l20.4,13.7l16.6,3.4l14.1-3"/>
			</g>
		</g>
		<g id="LineCollection_2">
			<g>
				<defs>
					<rect id="SVGID_00000003827726422610987100000017207735016356545925_" x="54.3" y="11" width="195.3" height="183"/>
				</defs>
				<clipPath id="SVGID_00000119833830061580520400000000414483109479052171_">
					<use xlink:href="#SVGID_00000003827726422610987100000017207735016356545925_"  style="overflow:visible;"/>
				</clipPath>
				
					<path style="clip-path:url(#SVGID_00000119833830061580520400000000414483109479052171_);fill:none;stroke:#D65D48;stroke-width:1.5;stroke-linejoin:round;" d="
					M63.2,41.9v-0.5"/>
			</g>
			<g>
				<defs>
					<rect id="SVGID_00000123421557820594769120000000318857523679825024_" x="54.3" y="11" width="195.3" height="183"/>
				</defs>
				<clipPath id="SVGID_00000177457618363767945850000009449638562892175519_">
					<use xlink:href="#SVGID_00000123421557820594769120000000318857523679825024_"  style="overflow:visible;"/>
				</clipPath>
				
					<path style="clip-path:url(#SVGID_00000177457618363767945850000009449638562892175519_);fill:none;stroke:#D65D48;stroke-width:1.5;stroke-linejoin:round;" d="
					M126.4,132.4v-28"/>
			</g>
			<g>
				<defs>
					<rect id="SVGID_00000145754543676496570420000013761949463783346575_" x="54.3" y="11" width="195.3" height="183"/>
				</defs>
				<clipPath id="SVGID_00000149348129212035122350000005820753490181756310_">
					<use xlink:href="#SVGID_00000145754543676496570420000013761949463783346575_"  style="overflow:visible;"/>
				</clipPath>
				
					<path style="clip-path:url(#SVGID_00000149348129212035122350000005820753490181756310_);fill:none;stroke:#D65D48;stroke-width:1.5;stroke-linejoin:round;" d="
					M163.4,149.1v-40.7"/>
			</g>
			<g>
				<defs>
					<rect id="SVGID_00000111899797835494755180000002453053562596355223_" x="54.3" y="11" width="195.3" height="183"/>
				</defs>
				<clipPath id="SVGID_00000155852803426827478810000002513160285667923850_">
					<use xlink:href="#SVGID_00000111899797835494755180000002453053562596355223_"  style="overflow:visible;"/>
				</clipPath>
				
					<path style="clip-path:url(#SVGID_00000155852803426827478810000002513160285667923850_);fill:none;stroke:#D65D48;stroke-width:1.5;stroke-linejoin:round;" d="
					M189.6,150.1V108"/>
			</g>
		</g>
		<g id="line2d_60">
			<g>
				<defs>
					<rect id="SVGID_00000024705124443965323600000002717317581484414339_" x="54.3" y="11" width="195.3" height="183"/>
				</defs>
				<clipPath id="SVGID_00000158000346422076466120000007359457031393826475_">
					<use xlink:href="#SVGID_00000024705124443965323600000002717317581484414339_"  style="overflow:visible;"/>
				</clipPath>
				
					<path style="clip-path:url(#SVGID_00000158000346422076466120000007359457031393826475_);fill:none;stroke:#D65D48;stroke-width:1.5;stroke-linejoin:round;stroke-dasharray:5.55,2.4;" d="
					M163.4,236v-86.9"/>
			</g>
		</g>
		<g id="line2d_61">
			<g>
				<defs>
					<rect id="SVGID_00000043439265136806593280000015868840877383610268_" x="54.3" y="11" width="195.3" height="183"/>
				</defs>
				<clipPath id="SVGID_00000010273717200569355750000004251724225850000275_">
					<use xlink:href="#SVGID_00000043439265136806593280000015868840877383610268_"  style="overflow:visible;"/>
				</clipPath>
				
					<path style="clip-path:url(#SVGID_00000010273717200569355750000004251724225850000275_);fill:none;stroke:#D65D48;stroke-width:1.5;stroke-linejoin:round;stroke-dasharray:5.55,2.4;" d="
					M189.6,236v-85.9"/>
			</g>
		</g>
		<g id="line2d_62">
			<g>
				<defs>
					<rect id="SVGID_00000090295081988439575150000011771375182225738893_" x="54.3" y="11" width="195.3" height="183"/>
				</defs>
				<clipPath id="SVGID_00000072263801789965981580000003991596016391830687_">
					<use xlink:href="#SVGID_00000090295081988439575150000011771375182225738893_"  style="overflow:visible;"/>
				</clipPath>
				
					<path style="clip-path:url(#SVGID_00000072263801789965981580000003991596016391830687_);fill:none;stroke:#FFD06F;stroke-width:1.5;stroke-linejoin:round;stroke-dasharray:5.55,2.4;" d="
					M63.2,41.6l63.2,67.8l37,55.2l26.2,53"/>
			</g>
		</g>
		<g id="line2d_63">
			<g>
				<defs>
					<rect id="SVGID_00000106832676273381302330000013588965352660859790_" x="54.3" y="11" width="195.3" height="183"/>
				</defs>
				<clipPath id="SVGID_00000164483808348915553110000004357665102232539044_">
					<use xlink:href="#SVGID_00000106832676273381302330000013588965352660859790_"  style="overflow:visible;"/>
				</clipPath>
				<g style="clip-path:url(#SVGID_00000164483808348915553110000004357665102232539044_);">
					<g>
						<path id="m9dbbb008a9" class="st22" d="M63.2,45.8c0.8,0,1.6-0.3,2.1-0.9c0.6-0.6,0.9-1.3,0.9-2.1s-0.3-1.6-0.9-2.1
							c-0.6-0.6-1.3-0.9-2.1-0.9s-1.6,0.3-2.1,0.9c-0.6,0.6-0.9,1.3-0.9,2.1s0.3,1.6,0.9,2.1C61.6,45.5,62.4,45.8,63.2,45.8z"/>
					</g>
					<g>
						<path id="m9dbbb008a9_00000065047762114846949840000001848545145656405378_" class="st22" d="M126.4,86.5
							c0.8,0,1.6-0.3,2.1-0.9c0.6-0.6,0.9-1.3,0.9-2.1s-0.3-1.6-0.9-2.1c-0.6-0.6-1.3-0.9-2.1-0.9s-1.6,0.3-2.1,0.9
							c-0.6,0.6-0.9,1.3-0.9,2.1s0.3,1.6,0.9,2.1C124.8,86.2,125.6,86.5,126.4,86.5z"/>
					</g>
					<g>
						<path id="m9dbbb008a9_00000121998164914135914080000010509359649491288206_" class="st22" d="M163.4,82.8
							c0.8,0,1.6-0.3,2.1-0.9c0.6-0.6,0.9-1.3,0.9-2.1s-0.3-1.6-0.9-2.1c-0.6-0.6-1.3-0.9-2.1-0.9s-1.6,0.3-2.1,0.9
							c-0.6,0.6-0.9,1.3-0.9,2.1s0.3,1.6,0.9,2.1C161.8,82.5,162.6,82.8,163.4,82.8z"/>
					</g>
					<g>
						<path id="m9dbbb008a9_00000065072585976384526390000002747754335095783101_" class="st22" d="M189.6,92.8
							c0.8,0,1.6-0.3,2.1-0.9c0.6-0.6,0.9-1.3,0.9-2.1s-0.3-1.6-0.9-2.1c-0.6-0.6-1.3-0.9-2.1-0.9s-1.6,0.3-2.1,0.9
							c-0.6,0.6-0.9,1.3-0.9,2.1s0.3,1.6,0.9,2.1C188.1,92.5,188.8,92.8,189.6,92.8z"/>
					</g>
					<g>
						<path id="m9dbbb008a9_00000130623714469768775320000016883361257466117307_" class="st22" d="M210,100.3
							c0.8,0,1.6-0.3,2.1-0.9c0.6-0.6,0.9-1.3,0.9-2.1s-0.3-1.6-0.9-2.1c-0.6-0.6-1.3-0.9-2.1-0.9s-1.6,0.3-2.1,0.9
							c-0.6,0.6-0.9,1.3-0.9,2.1s0.3,1.6,0.9,2.1C208.4,100,209.2,100.3,210,100.3z"/>
					</g>
					<g>
						<path id="m9dbbb008a9_00000052821578852229086640000004152225088460810634_" class="st22" d="M226.6,107.5
							c0.8,0,1.6-0.3,2.1-0.9c0.6-0.6,0.9-1.3,0.9-2.1s-0.3-1.6-0.9-2.1c-0.6-0.6-1.3-0.9-2.1-0.9s-1.6,0.3-2.1,0.9
							c-0.6,0.6-0.9,1.3-0.9,2.1s0.3,1.6,0.9,2.1C225.1,107.1,225.8,107.5,226.6,107.5z"/>
					</g>
					<g>
						<path id="m9dbbb008a9_00000011031460817321596160000013765113445284130736_" class="st22" d="M240.7,105.9
							c0.8,0,1.6-0.3,2.1-0.9c0.6-0.6,0.9-1.3,0.9-2.1s-0.3-1.6-0.9-2.1c-0.6-0.6-1.3-0.9-2.1-0.9s-1.6,0.3-2.1,0.9
							c-0.6,0.6-0.9,1.3-0.9,2.1s0.3,1.6,0.9,2.1C239.1,105.6,239.9,105.9,240.7,105.9z"/>
					</g>
				</g>
			</g>
		</g>
		<g id="line2d_64">
			<g>
				<defs>
					<rect id="SVGID_00000031172245391899424370000017972509423882797955_" x="54.3" y="11" width="195.3" height="183"/>
				</defs>
				<clipPath id="SVGID_00000023996149004564551570000004156596877524373931_">
					<use xlink:href="#SVGID_00000031172245391899424370000017972509423882797955_"  style="overflow:visible;"/>
				</clipPath>
				<g style="clip-path:url(#SVGID_00000023996149004564551570000004156596877524373931_);">
					<g>
						<path id="mc2893fae70" class="st24" d="M63.2,44.6c0.8,0,1.6-0.3,2.1-0.9c0.6-0.6,0.9-1.3,0.9-2.1s-0.3-1.6-0.9-2.1
							c-0.6-0.6-1.3-0.9-2.1-0.9s-1.6,0.3-2.1,0.9c-0.6,0.6-0.9,1.3-0.9,2.1s0.3,1.6,0.9,2.1C61.6,44.3,62.4,44.6,63.2,44.6z"/>
					</g>
					<g>
						<path id="mc2893fae70_00000038386667646616913690000016674364811834653112_" class="st24" d="M126.4,115.9
							c0.8,0,1.6-0.3,2.1-0.9c0.6-0.6,0.9-1.3,0.9-2.1s-0.3-1.6-0.9-2.1c-0.6-0.6-1.3-0.9-2.1-0.9s-1.6,0.3-2.1,0.9
							c-0.6,0.6-0.9,1.3-0.9,2.1s0.3,1.6,0.9,2.1C124.8,115.6,125.6,115.9,126.4,115.9z"/>
					</g>
					<g>
						<path id="mc2893fae70_00000134210735749181178970000011497546670141402249_" class="st24" d="M163.4,152.1
							c0.8,0,1.6-0.3,2.1-0.9c0.6-0.6,0.9-1.3,0.9-2.1c0-0.8-0.3-1.6-0.9-2.1c-0.6-0.6-1.3-0.9-2.1-0.9s-1.6,0.3-2.1,0.9
							c-0.6,0.6-0.9,1.3-0.9,2.1c0,0.8,0.3,1.6,0.9,2.1C161.8,151.8,162.6,152.1,163.4,152.1z"/>
					</g>
					<g>
						<path id="mc2893fae70_00000011728973939662614830000009625286803761067397_" class="st24" d="M189.6,153.1
							c0.8,0,1.6-0.3,2.1-0.9c0.6-0.6,0.9-1.3,0.9-2.1c0-0.8-0.3-1.6-0.9-2.1c-0.6-0.6-1.3-0.9-2.1-0.9s-1.6,0.3-2.1,0.9
							c-0.6,0.6-0.9,1.3-0.9,2.1c0,0.8,0.3,1.6,0.9,2.1C188.1,152.7,188.8,153.1,189.6,153.1z"/>
					</g>
				</g>
			</g>
		</g>
		<g id="patch_3">
			<path class="st25" d="M54.3,194V11"/>
		</g>
		<g id="patch_4">
			<path class="st25" d="M249.6,194V11"/>
		</g>
		<g id="patch_5">
			<path class="st25" d="M54.3,194h195.3"/>
		</g>
		<g id="patch_6">
			<path class="st25" d="M54.3,11h195.3"/>
		</g>
	</g>
</g>
</svg>
